<?xml version="1.0" encoding="utf-8"?>
<!-- Generator: Adobe Illustrator 20.1.0, SVG Export Plug-In . SVG Version: 6.00 Build 0)  -->
<svg version="1.1" id="Layer_1" xmlns="http://www.w3.org/2000/svg" xmlns:xlink="http://www.w3.org/1999/xlink" x="0px" y="0px"
	 viewBox="0 0 260 260" style="enable-background:new 0 0 260 260;" xml:space="preserve">
<title>cardboard</title>
<path d="M241.1,61.7H18.9C8.5,61.8,0,70.2,0,80.7v98.7c0,10.4,8.5,18.9,18.9,18.9h86.7c2.3,0,4.4-1.2,5.6-3.3l13-26.4
	c1.5-3.1,5.2-4.4,8.2-2.9c1.3,0.6,2.3,1.6,2.9,2.9l12.4,26c1,2.3,3.3,3.7,5.8,3.6h87.7c10.4-0.1,18.8-8.5,18.9-18.9V80.7
	C260,70.2,251.5,61.8,241.1,61.7z M71.5,152.2c-12.3,0.1-22.2-9.8-22.3-22.1c-0.1-12.3,9.8-22.2,22.1-22.3
	c12.3-0.1,22.2,9.8,22.3,22.1c0,0,0,0.1,0,0.1C93.6,142.2,83.7,152.1,71.5,152.2z M188.5,152.2c-12.3,0.1-22.2-9.8-22.3-22.1
	c-0.1-12.3,9.8-22.2,22.1-22.3c12.3-0.1,22.2,9.8,22.3,22.1c0,0,0,0.1,0,0.1C210.6,142.2,200.7,152.1,188.5,152.2z"/>
</svg>
