<?xml version="1.0" standalone="no"?>
<!DOCTYPE svg PUBLIC "-//W3C//DTD SVG 20010904//EN"
 "http://www.w3.org/TR/2001/REC-SVG-20010904/DTD/svg10.dtd">
<svg version="1.0" xmlns="http://www.w3.org/2000/svg"
 width="260.000000pt" height="260.000000pt" viewBox="0 0 260.000000 260.000000"
 preserveAspectRatio="xMidYMid meet">
<metadata>
Created by potrace 1.11, written by Peter Selinger 2001-2013
</metadata>
<g transform="translate(0.000000,260.000000) scale(0.100000,-0.100000)"
fill="#000000" stroke="none">
<path d="M160 1980 c-68 -12 -112 -45 -143 -106 -14 -28 -16 -99 -17 -568 0
-463 2 -541 15 -573 20 -48 41 -71 89 -95 38 -20 59 -20 508 -20 366 0 471 2
483 12 9 7 48 78 86 157 53 108 77 147 95 153 34 13 66 -4 86 -48 80 -172 121
-252 134 -263 12 -10 118 -12 483 -12 258 1 479 4 492 8 40 12 88 54 109 95
18 36 19 62 20 575 0 506 -1 539 -19 579 -20 47 -68 89 -116 101 -34 10 -2252
14 -2305 5z m674 -497 c93 -65 124 -179 77 -276 -80 -166 -308 -167 -393 -3
-55 107 -9 238 104 295 61 31 155 24 212 -16z m1152 10 c82 -42 132 -147 112
-236 -36 -166 -228 -231 -356 -121 -75 64 -98 164 -57 253 24 52 83 106 130
121 45 14 127 6 171 -17z"/>
</g>
</svg>
